<svg width="64" height="64" viewBox="0 0 64 64" fill="none" xmlns="http://www.w3.org/2000/svg">
<g clip-path="url(#clip0_252_34)">
<path d="M39 10C35.1562 10 32 13.1562 32 17C32 20.8438 35.1562 24 39 24C42.8438 24 46 20.8438 46 17C46 13.1562 42.8438 10 39 10ZM39 14C40.6797 14 42 15.3203 42 17C42 18.6797 40.6797 20 39 20C37.3203 20 36 18.6797 36 17C36 15.3203 37.3203 14 39 14ZM30.1875 21.0625C29.1719 21.1641 28.1875 21.6641 27.5 22.5L22.8125 28.1875C21.1953 30.1562 21.8984 33.2656 24.1875 34.375L31.0625 37.75L29.25 47.75L33.1875 48.4375L35.3125 36.9375L35.5625 35.4375L34.1875 34.75L25.875 30.75L30.625 25L38.75 31.5625L39.3125 32H50V28H40.6875L33.125 21.9375C32.2812 21.2578 31.2031 20.9609 30.1875 21.0625ZM17 36C12.0625 36 8 40.0625 8 45C8 49.9375 12.0625 54 17 54C21.9375 54 26 49.9375 26 45C26 40.0625 21.9375 36 17 36ZM47 36C42.0625 36 38 40.0625 38 45C38 49.9375 42.0625 54 47 54C51.9375 54 56 49.9375 56 45C56 40.0625 51.9375 36 47 36ZM17 40C19.7578 40 22 42.2422 22 45C22 47.7578 19.7578 50 17 50C14.2422 50 12 47.7578 12 45C12 42.2422 14.2422 40 17 40ZM47 40C49.7578 40 52 42.2422 52 45C52 47.7578 49.7578 50 47 50C44.2422 50 42 47.7578 42 45C42 42.2422 44.2422 40 47 40Z" fill="#5B5B5B"/>
</g>
<defs>
<clipPath id="clip0_252_34">
<rect width="64" height="64" fill="white"/>
</clipPath>
</defs>
</svg>
