<svg width="64" height="64" viewBox="0 0 64 64" fill="none" xmlns="http://www.w3.org/2000/svg">
<g id="icon">
<path id="Vector" d="M32 11C24.2891 11 18 17.3478 18 25.1308C18 27.3388 18.8872 29.8718 20.0903 32.6379C21.2934 35.4039 22.8429 38.3417 24.4167 41.0771C27.5642 46.554 30.7361 51.1355 30.7361 51.1355L32 53L33.2639 51.1355C33.2639 51.1355 36.4358 46.554 39.5833 41.0771C41.1571 38.3417 42.7066 35.4039 43.9097 32.6379C45.1128 29.8718 46 27.3388 46 25.1308C46 17.3478 39.7109 11 32 11ZM32 14.1402C38.0339 14.1402 42.8889 19.0406 42.8889 25.1308C42.8889 26.3881 42.2205 28.7678 41.0903 31.3622C39.9601 33.9565 38.3984 36.8329 36.8611 39.507C34.4184 43.7634 32.8993 46.0143 32 47.3575C31.1007 46.0143 29.5816 43.7634 27.1389 39.507C25.6016 36.8329 24.0399 33.9565 22.9097 31.3622C21.7795 28.7678 21.1111 26.3881 21.1111 25.1308C21.1111 19.0406 25.9661 14.1402 32 14.1402ZM32 21.9907C30.2804 21.9907 28.8889 23.3952 28.8889 25.1308C28.8889 26.8665 30.2804 28.271 32 28.271C33.7196 28.271 35.1111 26.8665 35.1111 25.1308C35.1111 23.3952 33.7196 21.9907 32 21.9907Z" fill="#5B5B5B"/>
</g>
</svg>
