<svg width="64" height="64" viewBox="0 0 64 64" fill="none" xmlns="http://www.w3.org/2000/svg">
<g clip-path="url(#clip0_252_34)">
<path d="M18 10C14.71 10 12 12.71 12 16V54H40V40H44V48C44 51.29 46.71 54 50 54C53.29 54 56 51.29 56 48V27.625C56 26.031 55.374 24.5615 54.25 23.4375L44.8125 14L42 16.8125L47.6875 22.5C45.5395 23.414 44 25.532 44 28C44 31.29 46.71 34 50 34C50.704 34 51.368 33.853 52 33.625V48C52 49.132 51.132 50 50 50C48.868 50 48 49.132 48 48V40C48 37.812 46.188 36 44 36H40V16C40 12.71 37.29 10 34 10H18ZM18 14H34C35.132 14 36 14.868 36 16V22V24V28V36V50H16V36V28V24V22V16C16 14.868 16.868 14 18 14ZM26.1797 21.1211L21.3203 30.8789L23.1211 31.8203L25.3203 32.8789L22.1797 39.1211L25.8203 40.8789L30.6797 31.1211L28.8789 30.1797L26.6797 29.1211L29.8203 22.8789L26.1797 21.1211ZM50 26C51.124 26 52 26.876 52 28C52 29.124 51.124 30 50 30C48.874 30 48 29.124 48 28C48 26.876 48.874 26 50 26Z" fill="#5B5B5B"/>
</g>
<defs>
<clipPath id="clip0_252_34">
<rect width="64" height="64" fill="white"/>
</clipPath>
</defs>
</svg>
