<svg width="64" height="64" viewBox="0 0 64 64" fill="none" xmlns="http://www.w3.org/2000/svg">
<g clip-path="url(#clip0_252_34)">
<path d="M40 6C30.1094 6 22 14.1094 22 24C22 25.0391 22.1719 25.9531 22.3125 26.875L6.5625 42.5625L6 43.1875V58H20V52H26V46H32V40.0625C34.3594 41.2188 37.1094 42 40 42C49.8906 42 58 33.8906 58 24C58 14.1094 49.8906 6 40 6ZM40 10C47.7109 10 54 16.2891 54 24C54 31.7109 47.7109 38 40 38C37.5781 38 35.0859 37.2891 33.1875 36.25L32.6875 36H28V42H22V48H16V54H10V44.875L25.8125 29L26.5625 28.3125L26.375 27.25C26.1719 26.0469 26 24.9766 26 24C26 16.2891 32.2891 10 40 10ZM44 16C41.7891 16 40 17.7891 40 20C40 22.2109 41.7891 24 44 24C46.2109 24 48 22.2109 48 20C48 17.7891 46.2109 16 44 16Z" fill="#5B5B5B"/>
</g>
<defs>
<clipPath id="clip0_252_34">
<rect width="64" height="64" fill="white"/>
</clipPath>
</defs>
</svg>
