<svg width="64" height="64" viewBox="0 0 64 64" fill="none" xmlns="http://www.w3.org/2000/svg">
<g id="icon">
<path id="Vector" d="M19.6543 19C17.9009 19 16.2808 19.8684 15.3066 21.3156L11.6562 26.7187C11.2256 27.3586 11 28.1 11 28.8719V37.4844C11 38.6727 11.8049 39.7137 12.9688 40.0031L16.373 40.8562C16.8652 43.2176 18.9775 45 21.5 45C23.9302 45 25.9604 43.3344 26.5449 41.1H38.7676C39.3521 43.3344 41.3823 45 43.8125 45C46.2427 45 48.2729 43.3344 48.8574 41.1H50.375C51.8105 41.1 53 39.9219 53 38.5V33.7469C53 31.3652 51.3542 29.2832 49.0215 28.7094L41.9258 26.9219L36.7988 20.8687C35.7991 19.6855 34.3379 19 32.7793 19H19.6543ZM19.6543 21.6H25.4375V26.8H14.7734L17.4805 22.7781V22.7375C17.9675 22.0113 18.7725 21.6 19.6543 21.6ZM28.0625 21.6H32.7793C33.5586 21.6 34.2917 21.9402 34.7891 22.5344L38.3984 26.8H28.0625V21.6ZM13.625 29.4H41.0234L48.4062 31.2281C49.5803 31.5176 50.375 32.5484 50.375 33.7469V38.5H48.8574C48.2729 36.2656 46.2427 34.6 43.8125 34.6C41.3823 34.6 39.3521 36.2656 38.7676 38.5H26.5449C25.9604 36.2656 23.9302 34.6 21.5 34.6C19.1724 34.6 17.219 36.1234 16.5371 38.2156L13.625 37.4844V29.4ZM21.5 37.2C22.9663 37.2 24.125 38.3477 24.125 39.8C24.125 41.2523 22.9663 42.4 21.5 42.4C20.0337 42.4 18.875 41.2523 18.875 39.8C18.875 38.3477 20.0337 37.2 21.5 37.2ZM43.8125 37.2C45.2788 37.2 46.4375 38.3477 46.4375 39.8C46.4375 41.2523 45.2788 42.4 43.8125 42.4C42.3462 42.4 41.1875 41.2523 41.1875 39.8C41.1875 38.3477 42.3462 37.2 43.8125 37.2Z" fill="#5B5B5B"/>
</g>
</svg>
