<svg width="64" height="64" viewBox="0 0 64 64" fill="none" xmlns="http://www.w3.org/2000/svg">
<g id="bed-solid 1">
<path id="Vector" d="M12 12C8.71094 12 6 14.7109 6 18V31.5625C4.78125 32.6641 4 34.2422 4 36V54H14V50H50V54H60V36C60 34.2422 59.2188 32.6641 58 31.5625V18C58 14.7109 55.2891 12 52 12H12ZM12 16H52C53.1094 16 54 16.8906 54 18V30H50V28C50 24.7109 47.2891 22 44 22H36C34.4688 22 33.0625 22.6016 32 23.5625C30.9375 22.6016 29.5312 22 28 22H20C16.7109 22 14 24.7109 14 28V30H10V18C10 16.8906 10.8906 16 12 16ZM20 26H28C29.1094 26 30 26.8906 30 28V30H18V28C18 26.8906 18.8906 26 20 26ZM36 26H44C45.1094 26 46 26.8906 46 28V30H34V28C34 26.8906 34.8906 26 36 26ZM10 34H54C55.1094 34 56 34.8906 56 36V50H54V46H10V50H8V36C8 34.8906 8.89063 34 10 34Z" fill="#5B5B5B"/>
</g>
</svg>
