<svg width="64" height="64" viewBox="0 0 64 64" fill="none" xmlns="http://www.w3.org/2000/svg">
<g id="icon" clip-path="url(#clip0_252_34)">
<g id="gamepad-solid 1">
<path id="Vector" d="M32 14C19.2344 14 8.06252 18.125 8.06252 18.125L6.87502 18.5625L6.75002 19.75L4.06252 40.25C3.33596 45.9219 7.39065 51.2109 13.0625 51.9375C18.3438 52.6172 23.0781 49.0547 24.3125 44H39.6875C40.9297 49.0547 45.6563 52.6172 50.9375 51.9375C56.6094 51.2109 60.6641 45.9219 59.9375 40.25L57.25 19.75L57.125 18.5625L55.9375 18.125C55.9375 18.125 44.7656 14 32 14ZM32 18C42.9688 18 52.0156 21.0469 53.5 21.5625L55.9375 40.8125C56.3906 44.3359 53.961 47.4844 50.4375 47.9375C46.9141 48.3906 43.7031 45.9609 43.25 42.4375L43.1875 41.75L42.9375 40H21.0625L20.8125 41.75L20.75 42.4375C20.2969 45.9609 17.086 48.3906 13.5625 47.9375C10.0391 47.4844 7.6094 44.3359 8.06252 40.8125L10.5 21.5625C11.9844 21.0469 21.0313 18 32 18ZM18 24V28H14V32H18V36H22V32H26V28H22V24H18ZM44 24C42.8985 24 42 24.8984 42 26C42 27.1016 42.8985 28 44 28C45.1016 28 46 27.1016 46 26C46 24.8984 45.1016 24 44 24ZM40 28C38.8985 28 38 28.8984 38 30C38 31.1016 38.8985 32 40 32C41.1016 32 42 31.1016 42 30C42 28.8984 41.1016 28 40 28ZM48 28C46.8985 28 46 28.8984 46 30C46 31.1016 46.8985 32 48 32C49.1016 32 50 31.1016 50 30C50 28.8984 49.1016 28 48 28ZM44 32C42.8985 32 42 32.8984 42 34C42 35.1016 42.8985 36 44 36C45.1016 36 46 35.1016 46 34C46 32.8984 45.1016 32 44 32Z" fill="#5B5B5B"/>
</g>
</g>
<defs>
<clipPath id="clip0_252_34">
<rect width="64" height="64" fill="white"/>
</clipPath>
</defs>
</svg>
