<svg width="64" height="64" viewBox="0 0 64 64" fill="none" xmlns="http://www.w3.org/2000/svg">
<g id="icon" clip-path="url(#clip0_252_34)">
<g id="swimming-pool-solid 1">
<path id="Vector" d="M24 8C20.6953 8 18 10.6953 18 14V39.25L20 37.8125L22 39.25V14C22 12.8984 22.8984 12 24 12H26V8H24ZM48 8C44.6953 8 42 10.6953 42 14V16H24V20H42V24H24V28H42V32H24V36H42V39.25L44 37.8125L46 39.25V14C46 12.8984 46.8984 12 48 12H50V8H48ZM20 41.4375L18.75 42.4375C18.75 42.4375 16.7422 44 14.0625 44C11.3828 44 9.25 42.4375 9.25 42.4375L6.75 45.5625C6.75 45.5625 9.83594 48 14.0625 48C16.9844 48 18.8438 47.0312 20 46.3125C21.1641 47.0234 23.1172 48 26.0625 48C28.9844 48 30.8438 47.0312 32 46.3125C33.1641 47.0234 35.1172 48 38.0625 48C40.9844 48 42.8438 47.0312 44 46.3125C45.1641 47.0234 47.1172 48 50.0625 48C54.2891 48 57.25 45.5625 57.25 45.5625L54.75 42.4375C54.75 42.4375 52.7422 44 50.0625 44C47.3828 44 45.25 42.4375 45.25 42.4375L44 41.4375L42.75 42.4375C42.75 42.4375 40.7422 44 38.0625 44C35.3828 44 33.25 42.4375 33.25 42.4375L32 41.4375L30.75 42.4375C30.75 42.4375 28.7422 44 26.0625 44C23.3828 44 21.25 42.4375 21.25 42.4375L20 41.4375ZM20 49.4375L18.75 50.4375C18.75 50.4375 16.7422 52 14.0625 52C11.3828 52 9.25 50.4375 9.25 50.4375L6.75 53.5625C6.75 53.5625 9.83594 56 14.0625 56C16.9844 56 18.8438 55.0312 20 54.3125C21.1641 55.0234 23.1172 56 26.0625 56C28.9844 56 30.8438 55.0312 32 54.3125C33.1641 55.0234 35.1172 56 38.0625 56C40.9844 56 42.8438 55.0312 44 54.3125C45.1641 55.0234 47.1172 56 50.0625 56C54.2891 56 57.25 53.5625 57.25 53.5625L54.75 50.4375C54.75 50.4375 52.7422 52 50.0625 52C47.3828 52 45.25 50.4375 45.25 50.4375L44 49.4375L42.75 50.4375C42.75 50.4375 40.7422 52 38.0625 52C35.3828 52 33.25 50.4375 33.25 50.4375L32 49.4375L30.75 50.4375C30.75 50.4375 28.7422 52 26.0625 52C23.3828 52 21.25 50.4375 21.25 50.4375L20 49.4375Z" fill="#5B5B5B"/>
</g>
</g>
<defs>
<clipPath id="clip0_252_34">
<rect width="64" height="64" fill="white"/>
</clipPath>
</defs>
</svg>
