<svg width="64" height="64" viewBox="0 0 64 64" fill="none" xmlns="http://www.w3.org/2000/svg">
<g id="icon" clip-path="url(#clip0_252_34)">
<g id="spa-solid 1">
<path id="Vector" d="M32 8C26.1719 8 21.4688 12.6328 21.125 18.375C15.961 17.3594 10.6094 20.0469 8.68755 25.125C6.68755 30.4062 9.20317 36.1797 14.125 38.6875C10.8516 43.2969 11.5391 49.7422 15.9375 53.4375C20.5704 57.3359 27.5469 56.6953 31.4375 52.0625C31.6797 51.7734 31.7422 51.3828 31.9375 51.0625C32.1485 51.4062 32.2344 51.8125 32.5 52.125C36.3985 56.7578 43.3672 57.3984 48 53.5C52.4063 49.7891 53.0469 43.3594 49.75 38.75C54.7579 36.2734 57.3282 30.4453 55.3125 25.125C53.3907 20.0469 48.0313 17.3594 42.875 18.375C42.5313 12.6328 37.8282 8 32 8ZM32 12C35.8907 12 39 15.1094 39 19C39 19.3125 38.8672 19.875 38.625 20.5625C38.6172 20.5859 38.6329 20.6016 38.625 20.625L32.6875 29.0625C33.3125 27 34 24.6562 34 24C34 22.8984 33.1016 22 32 22C30.8985 22 30 22.8984 30 24C30 24.6328 30.5469 26.8516 31.0625 28.875L25.25 20.125C25.1172 19.6641 25 19.25 25 19C25 15.1094 28.1094 12 32 12ZM18.75 22C19.6641 21.9688 20.5938 22.0938 21.5 22.4375C21.6563 22.4922 21.9141 22.7031 22.25 22.9375C22.2735 22.9531 22.2891 22.9219 22.3125 22.9375L27.875 31.375C26.125 30.1875 24.1719 28.9062 23.5625 28.6875C22.5235 28.3125 21.375 28.8359 21 29.875C20.625 30.9141 21.1485 32.0625 22.1875 32.4375C22.7891 32.6562 25.1329 32.8203 27.25 32.9375L17.125 35.75C16.8672 35.7031 16.6485 35.6172 16.5 35.5625C12.8594 34.1875 11.0547 30.1406 12.4375 26.5C13.4688 23.7734 16.0157 22.0938 18.75 22ZM45.25 22C47.9844 22.0938 50.5313 23.7734 51.5625 26.5C52.9375 30.1328 51.1407 34.1875 47.5 35.5625C47.25 35.6562 46.75 35.7734 46.1875 35.8125L36.4375 32.9375C38.6172 32.8203 41.1719 32.6719 41.8125 32.4375C42.8516 32.0625 43.375 30.9141 43 29.875C42.625 28.8359 41.4766 28.3125 40.4375 28.6875C39.7735 28.9219 37.6016 30.3438 35.8125 31.5625L41.875 22.8125C42.125 22.6406 42.375 22.4844 42.5 22.4375C43.4063 22.0938 44.336 21.9688 45.25 22ZM28.625 36.75C26.8438 37.9922 24.6563 39.5234 24.1875 40.0625C23.4688 40.8984 23.6016 42.2188 24.4375 42.9375C25.2813 43.6562 26.5313 43.5234 27.25 42.6875C27.7891 42.0625 29.1797 38.8984 30 37V44.375C29.6329 46.7734 28.9063 48.8672 28.375 49.5C25.875 52.4766 21.4766 52.8828 18.5 50.375C15.5235 47.875 15.1172 43.4766 17.625 40.5C17.836 40.25 18.3204 39.875 18.9375 39.5L19.1875 39.375L28.625 36.75ZM35.5625 36.875L45.125 39.625C45.6797 39.9766 46.1172 40.3281 46.3125 40.5625C48.8125 43.5391 48.4141 47.9297 45.4375 50.4375C42.461 52.9375 38.0704 52.5391 35.5625 49.5625C35.0547 48.9609 34.375 47.0078 34 44.75V37C34.8204 38.8984 36.211 42.0625 36.75 42.6875C37.4688 43.5234 38.7266 43.6562 39.5625 42.9375C40.3985 42.2188 40.5313 40.8984 39.8125 40.0625C39.3672 39.5469 37.3282 38.1094 35.5625 36.875Z" fill="#5B5B5B"/>
</g>
</g>
<defs>
<clipPath id="clip0_252_34">
<rect width="64" height="64" fill="white"/>
</clipPath>
</defs>
</svg>
