<svg width="64" height="64" viewBox="0 0 64 64" fill="none" xmlns="http://www.w3.org/2000/svg">
<g clip-path="url(#clip0_252_34)">
<path d="M10 10V14V18H14V14H18V10H10ZM22 10V14H30V10H22ZM34 10V14H42V10H34ZM46 10V14H50V18H54V14V10H50H46ZM30 18V26H34V18H30ZM10 22V30H14V22H10ZM50 22V30H54V22H50ZM18 30V34H26V30H18ZM30 30V34H34V30H30ZM38 30V34H46V30H38ZM10 34V42H14V34H10ZM50 34V42H54V34H50ZM30 38V46H34V38H30ZM10 46V54H14H18V50H14V46H10ZM50 46V50H46V54H50H54V50V46H50ZM22 50V54H30V50H22ZM34 50V54H42V50H34Z" fill="#5B5B5B"/>
</g>
<defs>
<clipPath id="clip0_252_34">
<rect width="64" height="64" fill="white"/>
</clipPath>
</defs>
</svg>
