<svg width="64" height="64" viewBox="0 0 64 64" fill="none" xmlns="http://www.w3.org/2000/svg">
<g clip-path="url(#clip0_252_34)">
<path d="M30 8C28.9531 8 27.8828 8.36719 27.125 9.125C26.3672 9.88281 26 10.9531 26 12V14H14V18H16V50C16 53.2891 18.7109 56 22 56H46C49.2891 56 52 53.2891 52 50V18H54V14H42V12C42 10.9531 41.6328 9.88281 40.875 9.125C40.1172 8.36719 39.0469 8 38 8H30ZM30 12H38V14H30V12ZM20 18H48V50C48 51.1094 47.1094 52 46 52H22C20.8906 52 20 51.1094 20 50V18ZM24 24V46H28V24H24ZM32 24V46H36V24H32ZM40 24V46H44V24H40Z" fill="#5B5B5B"/>
</g>
<defs>
<clipPath id="clip0_252_34">
<rect width="64" height="64" fill="white"/>
</clipPath>
</defs>
</svg>
