<svg width="64" height="64" viewBox="0 0 64 64" fill="none" xmlns="http://www.w3.org/2000/svg">
<g id="icon" clip-path="url(#clip0_252_34)">
<g id="wifi-solid 1">
<path id="Vector" d="M32 12C21.039 12 11.1451 16.5712 4 23.8696L7.07317 26.9571C13.4244 20.4563 22.2427 16.3911 32 16.3911C41.7573 16.3911 50.5756 20.4563 56.9268 26.9571L60 23.8696C52.8549 16.5712 42.961 12 32 12ZM32 22.9777C24.0439 22.9777 16.8817 26.3139 11.7171 31.6226L14.7902 34.7101C19.161 30.199 25.2561 27.3688 32 27.3688C38.7439 27.3688 44.839 30.199 49.2098 34.7101L52.2829 31.6226C47.1183 26.3139 39.9561 22.9777 32 22.9777ZM32 33.9554C27.0573 33.9554 22.6183 36.0566 19.4341 39.3756L22.5073 42.4631C24.8976 39.9417 28.261 38.3465 32 38.3465C35.739 38.3465 39.1024 39.9417 41.4927 42.4631L44.5659 39.3756C41.3902 36.0566 36.9427 33.9554 32 33.9554ZM32 44.9331C30.0707 44.9331 28.3549 45.7907 27.1512 47.1286L32 52L36.8488 47.1286C35.6451 45.7907 33.9293 44.9331 32 44.9331Z" fill="#5B5B5B"/>
</g>
</g>
<defs>
<clipPath id="clip0_252_34">
<rect width="64" height="64" fill="white"/>
</clipPath>
</defs>
</svg>
