<svg width="64" height="64" viewBox="0 0 64 64" fill="none" xmlns="http://www.w3.org/2000/svg">
<g id="icon">
<path id="Vector" d="M40.9306 11C39.6435 11 38.3302 11.4989 37.3583 12.4705C36.7148 13.1138 36.3143 13.9015 36.0976 14.7287C35.7495 14.6565 35.4081 14.5711 35.0469 14.5711C33.7598 14.5711 32.4465 15.0175 31.4747 15.9891C29.531 17.9322 29.531 21.1357 31.4747 23.0788L32.8931 24.4967L24.4878 32.8993L23.0694 31.4814C22.0976 30.5098 20.8368 30.0109 19.5497 30.0109C18.2627 30.0109 16.9493 30.5098 15.9775 31.4814C14.7233 32.7418 14.2964 34.5274 14.6642 36.1554C13.8565 36.3654 13.0947 36.7265 12.4578 37.3632C10.5141 39.3063 10.5141 42.5098 12.4578 44.453L12.5103 44.5055L14.7692 46.8162L13.6135 47.9716L16.03 50.3873L17.1857 49.2319L19.5497 51.5427C21.4934 53.4858 24.6979 53.4858 26.6417 51.5427C27.272 50.9125 27.6792 50.1444 27.9024 49.337C29.5178 49.6849 31.2777 49.2713 32.5253 48.0241C34.469 46.081 34.469 42.8775 32.5253 40.9344L31.1069 39.5164L39.5122 31.1138L40.9306 32.5317C42.8743 34.4748 46.0788 34.4748 48.0225 32.5317C49.2636 31.2845 49.6839 29.5252 49.3358 27.9103C50.1501 27.6871 50.9053 27.2867 51.5422 26.6499C53.4859 24.7068 53.4859 21.5033 51.5422 19.5602L49.2308 17.1969L50.3865 16.0416L47.97 13.6258L46.8143 14.7812L44.4503 12.4705C43.4784 11.4989 42.2176 11 40.9306 11ZM40.9306 14.3611C41.3508 14.3611 41.758 14.5055 42.0863 14.8337L49.1782 21.9234C49.8415 22.5864 49.8349 23.5777 49.1782 24.2341C48.5216 24.8906 47.4775 24.8906 46.8143 24.2341L39.7749 17.1969C39.1182 16.5405 39.1182 15.4967 39.7749 14.8337C40.1032 14.5055 40.5103 14.3611 40.9306 14.3611ZM35.0469 17.8796C35.4672 17.8796 35.8743 18.0766 36.2026 18.4048L45.606 27.8053C46.2627 28.4683 46.2627 29.5055 45.606 30.1685C44.9493 30.8249 43.9578 30.7724 43.2946 30.116H43.242L33.8386 20.7155C33.182 20.0591 33.2345 19.0678 33.8912 18.4048C34.2129 18.0963 34.6398 17.8796 35.0469 17.8796ZM35.257 26.86L37.1482 28.7505L28.743 37.1532L26.8518 35.2626L35.257 26.86ZM19.5497 33.372C19.97 33.372 20.3771 33.5689 20.7054 33.8972H20.758L30.1614 43.2976C30.818 43.954 30.7655 44.9453 30.1088 45.6083C29.4522 46.2319 28.4475 46.2582 27.7974 45.6083L26.6417 44.453L26.4315 44.2954L19.5497 37.3632L18.394 36.2079C17.7373 35.5449 17.7373 34.5077 18.394 33.8446C18.7223 33.5164 19.1295 33.372 19.5497 33.372ZM15.9775 39.2538C16.3977 39.2538 16.8574 39.4508 17.1857 39.779L24.2251 46.8162C24.8818 47.4726 24.8818 48.5164 24.2251 49.1794C23.5685 49.8359 22.5769 49.8359 21.9137 49.1794L14.8218 42.0897C14.1585 41.4267 14.1651 40.4354 14.8218 39.779C15.1501 39.4508 15.5572 39.2538 15.9775 39.2538Z" fill="#5B5B5B"/>
</g>
</svg>
