<svg width="64" height="64" viewBox="0 0 64 64" fill="none" xmlns="http://www.w3.org/2000/svg">
<g id="icon">
<path id="Vector" d="M20.625 10C15.3135 10 11 14.3381 11 19.68C11 25.0219 15.3135 29.36 20.625 29.36C22.0469 29.36 23.3867 29.0025 24.6172 28.425L33.75 40.525V50.48H26.75V54H44.25V50.48H37.25V40.525L52.6719 20.065L53 19.57V17.04H29.8125C28.7529 12.9563 24.9727 10 20.625 10ZM20.625 13.52C23.0586 13.52 25.1572 14.9981 26.0938 17.04H18V19.57L18.3281 20.065L22.4297 25.51C21.8281 25.7231 21.2129 25.84 20.625 25.84C17.1865 25.84 14.5 23.1381 14.5 19.68C14.5 16.2219 17.1865 13.52 20.625 13.52ZM23.1406 20.56H47.8594L45.2344 24.08H29.375L32 27.6H42.5547L35.5 37.005L23.1406 20.56Z" fill="#5B5B5B"/>
</g>
</svg>
