<svg width="64" height="64" viewBox="0 0 64 64" fill="none" xmlns="http://www.w3.org/2000/svg">
<g id="icon" clip-path="url(#clip0_252_34)">
<g id="bath-solid 1">
<path id="Vector" d="M52 8C47.5781 8 44 11.5781 44 16H40V20H52V16H48C48 13.6172 49.6172 12 52 12C54.3828 12 56 13.6172 56 16V28H2V32H4.375L7.4375 47.1875V47.25C7.89844 49.3125 9.42969 51.0078 11.4375 51.6875L10 56H14L15.3125 52H48.6875L50 56H54L52.5625 51.6875C54.6562 51.0469 56.2812 49.3672 56.75 47.25V47.1875L59.625 32H62V28H60V16C60 11.5781 56.4219 8 52 8ZM8.4375 32H55.625L52.8125 46.4375C52.5781 47.3047 51.8438 48 50.8125 48H13.375C12.3047 48 11.5781 47.2891 11.375 46.375L8.4375 32Z" fill="#5B5B5B"/>
</g>
</g>
<defs>
<clipPath id="clip0_252_34">
<rect width="64" height="64" fill="white"/>
</clipPath>
</defs>
</svg>
