<svg width="64" height="64" viewBox="0 0 64 64" fill="none" xmlns="http://www.w3.org/2000/svg">
<g clip-path="url(#clip0_252_34)">
<path d="M28.75 6L28.375 7.5625C27.7734 10.2578 23.9062 14.6953 19.9375 20.125C15.9688 25.5547 12 32.3203 12 40.8125C12 44.8203 13.2266 49.1016 16.25 52.4375C19.2734 55.7734 24.0938 58 30.625 58C30.9141 58 31.1562 57.9453 31.4375 57.9375C31.625 57.9453 31.8047 58 32 58C32.6094 58 33.1797 57.9297 33.75 57.875C33.9219 57.8594 34.0781 57.8281 34.25 57.8125C40.9453 57.2578 45.3906 55.1953 48.125 52.125C51.3359 48.5234 52 43.9531 52 40C52 31.0703 46.8594 22.7656 41.875 16.625C36.8906 10.4844 31.875 6.4375 31.875 6.4375L31.3125 6H28.75ZM31 11C32.6172 12.4219 35.3438 14.9922 38.75 19.1875C43.4531 24.9844 48 32.6641 48 40C48 43.5078 47.3828 46.9062 45.125 49.4375C44.6406 49.9844 44.0547 50.5156 43.375 51C44.4531 47.8828 44.2188 44.3359 43.5 40.8125C42.6797 36.7891 41.125 32.75 39.625 29.5C38.125 26.25 36.8438 23.9531 35.75 22.6875L35.1875 22H31.3125L32.0625 24.5625C34.1562 31.3672 33.0547 36 31.875 37.375C31.2891 38.0625 31.0312 38.125 30.4375 37.9375C29.8438 37.75 28.7734 36.9766 27.75 35.0625L26.25 32.25L24.375 34.8125C20.6328 39.8516 19.1953 45.375 20.4375 50C20.5469 50.4062 20.7188 50.8047 20.875 51.1875C20.2812 50.7344 19.7266 50.2734 19.25 49.75C17.0156 47.2891 16 44 16 40.8125C16 33.5703 19.4062 27.6719 23.1875 22.5C26.2656 18.2891 29.2656 14.7344 31 11ZM37.125 34.4375C38.0547 36.7891 39.0625 39.1641 39.5625 41.625C40.2891 45.2031 40.2734 48.4766 39.25 50.5625C38.4844 52.125 37.2969 53.2734 34.875 53.75C34.6094 53.8047 34.2969 53.8359 34 53.875C33.375 53.9297 32.6875 53.9766 32 54C31.8203 54 31.6719 54.0078 31.5 54C27.1719 53.8594 25.0938 51.9297 24.3125 49C23.6641 46.5859 24.5078 43.2188 26.3125 39.8125C27.2031 40.7344 28.1484 41.4062 29.25 41.75C31.2891 42.3906 33.5625 41.6094 34.9375 40C36.1172 38.6172 36.8125 36.7031 37.125 34.4375Z" fill="#5B5B5B"/>
</g>
<defs>
<clipPath id="clip0_252_34">
<rect width="64" height="64" fill="white"/>
</clipPath>
</defs>
</svg>
