<svg width="64" height="64" viewBox="0 0 64 64" fill="none" xmlns="http://www.w3.org/2000/svg">
<g clip-path="url(#clip0_252_34)">
<path d="M30 6V13.125L25.4375 8.5625L22.5625 11.4375L30 18.875V28.5L21.75 23.5625L19.125 13.375L15.25 14.375L16.875 20.625L10.75 16.9375L8.6875 20.3125L14.9375 24.0625L8.5 25.6875L9.5 29.5625L19.75 26.9375L28.1875 32L19.75 37.0625L9.5 34.4375L8.5 38.3125L14.9375 39.9375L8.6875 43.6875L10.75 47.0625L16.875 43.375L15.25 49.625L19.125 50.625L21.75 40.4375L30 35.5V45.125L22.5625 52.5625L25.4375 55.4375L30 50.875V58H34V50.875L38.5625 55.4375L41.4375 52.5625L34 45.125V35.5L42.25 40.4375L44.875 50.625L48.75 49.625L47.125 43.375L53.25 47.0625L55.3125 43.6875L49.0625 39.9375L55.5 38.3125L54.5 34.4375L44.25 37.0625L35.8125 32L44.25 26.9375L54.5 29.5625L55.5 25.6875L49.0625 24.0625L55.3125 20.3125L53.25 16.9375L47.125 20.625L48.75 14.375L44.875 13.375L42.25 23.5625L34 28.5V18.875L41.4375 11.4375L38.5625 8.5625L34 13.125V6H30Z" fill="#5B5B5B"/>
</g>
<defs>
<clipPath id="clip0_252_34">
<rect width="64" height="64" fill="white"/>
</clipPath>
</defs>
</svg>
