<svg width="64" height="64" viewBox="0 0 64 64" fill="none" xmlns="http://www.w3.org/2000/svg">
<g id="icon" clip-path="url(#clip0_252_34)">
<g id="couch-solid 1">
<path id="Vector" d="M12 13C8.71094 13 6 15.7109 6 19V23.375C3.6875 24.2109 2 26.4141 2 29V51H6V47H58V51H62V29C62 26.4141 60.3125 24.2109 58 23.375V19C58 15.7109 55.2891 13 52 13H12ZM12 17H52C53.1094 17 54 17.8906 54 19V23.375C51.6875 24.2109 50 26.4141 50 29V33H14V29C14 26.4141 12.3125 24.2109 10 23.375V19C10 17.8906 10.8906 17 12 17ZM8 27C9.10938 27 10 27.8906 10 29V37H54V29C54 27.8906 54.8906 27 56 27C57.1094 27 58 27.8906 58 29V43H6V29C6 27.8906 6.89063 27 8 27Z" fill="#5B5B5B"/>
</g>
</g>
<defs>
<clipPath id="clip0_252_34">
<rect width="64" height="64" fill="white"/>
</clipPath>
</defs>
</svg>
