<svg width="64" height="64" viewBox="0 0 64 64" fill="none" xmlns="http://www.w3.org/2000/svg">
<g clip-path="url(#clip0_252_34)">
<path d="M0 14C0 17.25 3.66406 20 8 20C10.375 20 12.5234 19.1641 14 17.8828C15.4766 19.1641 17.625 20 20 20C22.375 20 24.5234 19.1641 26 17.8828C27.4766 19.1641 29.625 20 32 20C34.375 20 36.5234 19.1641 38 17.8828C39.4766 19.1641 41.625 20 44 20C46.375 20 48.5234 19.1641 50 17.8828C51.4766 19.1641 53.625 20 56 20C60.3359 20 64 17.25 64 14H60C60 14.6094 58.4844 16 56 16C53.5547 16 52 14.5938 52 14H48C48 14.6094 46.4844 16 44 16C41.5547 16 40 14.5938 40 14H36C36 14.6094 34.4844 16 32 16C29.5547 16 28 14.5938 28 14H24C24 14.6094 22.4922 16 20 16C17.5547 16 16 14.5938 16 14H12C12 14.6094 10.4922 16 8 16C5.55469 16 4 14.5938 4 14H0ZM0 30C0 33.25 3.66406 36 8 36C10.375 36 12.5234 35.1641 14 33.8828C15.4766 35.1641 17.625 36 20 36C22.375 36 24.5234 35.1641 26 33.8828C27.4766 35.1641 29.625 36 32 36C34.375 36 36.5234 35.1641 38 33.8828C39.4766 35.1641 41.625 36 44 36C46.375 36 48.5234 35.1641 50 33.8828C51.4766 35.1641 53.625 36 56 36C60.3359 36 64 33.25 64 30H60C60 30.6094 58.4844 32 56 32C53.5547 32 52 30.5938 52 30H48C48 30.6094 46.4844 32 44 32C41.5547 32 40 30.5938 40 30H36C36 30.6094 34.4844 32 32 32C29.5547 32 28 30.5938 28 30H24C24 30.6094 22.4922 32 20 32C17.5547 32 16 30.5938 16 30H12C12 30.6094 10.4922 32 8 32C5.55469 32 4 30.5938 4 30H0ZM0 46C0 49.25 3.66406 52 8 52C10.375 52 12.5234 51.1641 14 49.8828C15.4766 51.1641 17.625 52 20 52C22.375 52 24.5234 51.1641 26 49.8828C27.4766 51.1641 29.625 52 32 52C34.375 52 36.5234 51.1641 38 49.8828C39.4766 51.1641 41.625 52 44 52C46.375 52 48.5234 51.1641 50 49.8828C51.4766 51.1641 53.625 52 56 52C60.3359 52 64 49.25 64 46H60C60 46.6094 58.4844 48 56 48C53.5547 48 52 46.5938 52 46H48C48 46.6094 46.4844 48 44 48C41.5547 48 40 46.5938 40 46H36C36 46.6094 34.4844 48 32 48C29.5547 48 28 46.5938 28 46H24C24 46.6094 22.4922 48 20 48C17.5547 48 16 46.5938 16 46H12C12 46.6094 10.4922 48 8 48C5.55469 48 4 46.5938 4 46H0Z" fill="#5B5B5B"/>
</g>
<defs>
<clipPath id="clip0_252_34">
<rect width="64" height="64" fill="white"/>
</clipPath>
</defs>
</svg>
