<svg width="64" height="64" viewBox="0 0 64 64" fill="none" xmlns="http://www.w3.org/2000/svg">
<g clip-path="url(#clip0_252_34)">
<path d="M25 10C22.8594 10 21 11.2188 19.8125 12.875C18.625 14.5312 18 16.6797 18 19C18 21.3203 18.625 23.4688 19.8125 25.125C21 26.7812 22.8594 28 25 28C27.1406 28 29 26.7812 30.1875 25.125C31.375 23.4688 32 21.3203 32 19C32 16.6797 31.375 14.5312 30.1875 12.875C29 11.2188 27.1406 10 25 10ZM32 19C32 21.3203 32.625 23.4688 33.8125 25.125C35 26.7812 36.8594 28 39 28C41.1406 28 43 26.7812 44.1875 25.125C45.375 23.4688 46 21.3203 46 19C46 16.6797 45.375 14.5312 44.1875 12.875C43 11.2188 41.1406 10 39 10C36.8594 10 35 11.2188 33.8125 12.875C32.625 14.5312 32 16.6797 32 19ZM25 14C25.625 14 26.3125 14.3125 26.9375 15.1875C27.5625 16.0625 28 17.4531 28 19C28 20.5469 27.5625 21.9375 26.9375 22.8125C26.3125 23.6875 25.625 24 25 24C24.375 24 23.6875 23.6875 23.0625 22.8125C22.4375 21.9375 22 20.5469 22 19C22 17.4531 22.4375 16.0625 23.0625 15.1875C23.6875 14.3125 24.375 14 25 14ZM39 14C39.625 14 40.3125 14.3125 40.9375 15.1875C41.5625 16.0625 42 17.4531 42 19C42 20.5469 41.5625 21.9375 40.9375 22.8125C40.3125 23.6875 39.625 24 39 24C38.375 24 37.6875 23.6875 37.0625 22.8125C36.4375 21.9375 36 20.5469 36 19C36 17.4531 36.4375 16.0625 37.0625 15.1875C37.6875 14.3125 38.375 14 39 14ZM15 24C12.8594 24 11 25.2188 9.8125 26.875C8.625 28.5312 8 30.6797 8 33C8 35.3203 8.625 37.4688 9.8125 39.125C11 40.7812 12.8594 42 15 42C17.1406 42 19 40.7812 20.1875 39.125C21.375 37.4688 22 35.3203 22 33C22 30.6797 21.375 28.5312 20.1875 26.875C19 25.2188 17.1406 24 15 24ZM49 24C46.8594 24 45 25.2188 43.8125 26.875C42.625 28.5312 42 30.6797 42 33C42 35.3203 42.625 37.4688 43.8125 39.125C45 40.7812 46.8594 42 49 42C51.1406 42 53 40.7812 54.1875 39.125C55.375 37.4688 56 35.3203 56 33C56 30.6797 55.375 28.5312 54.1875 26.875C53 25.2188 51.1406 24 49 24ZM15 28C15.625 28 16.3125 28.3125 16.9375 29.1875C17.5625 30.0625 18 31.4531 18 33C18 34.5469 17.5625 35.9375 16.9375 36.8125C16.3125 37.6875 15.625 38 15 38C14.375 38 13.6875 37.6875 13.0625 36.8125C12.4375 35.9375 12 34.5469 12 33C12 31.4531 12.4375 30.0625 13.0625 29.1875C13.6875 28.3125 14.375 28 15 28ZM49 28C49.625 28 50.3125 28.3125 50.9375 29.1875C51.5625 30.0625 52 31.4531 52 33C52 34.5469 51.5625 35.9375 50.9375 36.8125C50.3125 37.6875 49.625 38 49 38C48.375 38 47.6875 37.6875 47.0625 36.8125C46.4375 35.9375 46 34.5469 46 33C46 31.4531 46.4375 30.0625 47.0625 29.1875C47.6875 28.3125 48.375 28 49 28ZM32 32C29.3359 32 27.4766 33.7344 26.5625 35.25C25.6484 36.7656 25.0938 38.0312 24.5625 38.5625C24.25 38.875 22.3203 39.6016 20.3125 40.625C19.3047 41.1406 18.2891 41.8281 17.4375 42.875C16.5859 43.9219 16 45.375 16 47C16 50.8438 19.1562 54 23 54C24.7344 54 26.5391 53.4453 28.3125 52.9375C30.0859 52.4297 32 52 32 52C32 52 33.9141 52.4297 35.6875 52.9375C37.4609 53.4453 39.2656 54 41 54C44.8438 54 48 50.8438 48 47C48 45.4141 47.4141 43.9609 46.5625 42.9375C45.7109 41.9141 44.6875 41.2812 43.6875 40.75C41.6875 39.6875 39.7188 38.8438 39.4375 38.5625C38.9609 38.0859 38.4219 36.7812 37.5 35.25C36.5781 33.7188 34.6797 32 32 32ZM32 36C33.3203 36 33.4688 36.3203 34.0625 37.3125C34.6562 38.3047 35.1094 39.9844 36.5625 41.4375C38.2109 43.0859 40.2969 43.4453 41.8125 44.25C42.5703 44.6562 43.1562 45.0859 43.5 45.5C43.8438 45.9141 44 46.2969 44 47C44 48.6797 42.6797 50 41 50C40.4219 50 38.5547 49.5547 36.8125 49.0625C35.0703 48.5703 33.6328 48 32 48C30.3672 48 28.9297 48.5703 27.1875 49.0625C25.4453 49.5547 23.5781 50 23 50C21.3203 50 20 48.6797 20 47C20 46.1953 20.1641 45.7812 20.5 45.375C20.8359 44.9688 21.4453 44.5703 22.1875 44.1875C23.6797 43.4297 25.75 43.125 27.4375 41.4375C28.9062 39.9688 29.3516 38.2344 29.9375 37.25C30.5234 36.2656 30.6641 36 32 36Z" fill="#5B5B5B"/>
</g>
<defs>
<clipPath id="clip0_252_34">
<rect width="64" height="64" fill="white"/>
</clipPath>
</defs>
</svg>
