<svg width="64" height="64" viewBox="0 0 64 64" fill="none" xmlns="http://www.w3.org/2000/svg">
<g clip-path="url(#clip0_252_34)">
<path d="M31.75 8L31.5625 8.0625L15.5625 11.8125L14 12.1875V52.6875L15.625 52.9375L31.625 55.9375L31.8125 56H36V8H31.75ZM40 12V16H46V48H40V52H50V12H40ZM32 12.0625V52L18 49.375V15.3125L32 12.0625ZM28.6875 30C27.9531 30 27.3125 30.8984 27.3125 32C27.3125 33.1016 27.9531 34 28.6875 34C29.4219 34 30 33.1016 30 32C30 30.8984 29.4219 30 28.6875 30Z" fill="#5B5B5B"/>
</g>
<defs>
<clipPath id="clip0_252_34">
<rect width="64" height="64" fill="white"/>
</clipPath>
</defs>
</svg>
