<svg width="512" height="72" viewBox="0 0 512 72" fill="none" xmlns="http://www.w3.org/2000/svg">
<path d="M145.122 24.5488V19.9787C145.122 19.1133 144.408 18.4149 143.522 18.4149H109.784C104.968 18.4149 101.069 22.2258 101.069 26.9325V44.6964C101.069 49.4031 104.968 53.214 109.784 53.214H143.522C144.408 53.214 145.122 52.5156 145.122 51.6501V47.0801C145.122 46.2147 144.408 45.5163 143.522 45.5163H111.943C110.296 45.5163 108.96 44.2106 108.96 42.6012C108.96 40.9918 110.296 39.6861 111.943 39.6861H143.522C144.408 39.6861 145.122 38.9877 145.122 38.1222V33.5522C145.122 32.6868 144.408 31.9884 143.522 31.9884H111.943C110.296 31.9884 108.96 30.6826 108.96 29.0733C108.96 27.4639 110.296 26.1582 111.943 26.1582H143.522C144.408 26.1582 145.122 25.4598 145.122 24.5943" fill="white"/>
<path d="M291.743 26.1126C292.566 26.1126 293.25 25.4446 293.25 24.6399V19.8877C293.25 19.0678 292.566 18.4149 291.743 18.4149H257.896C253.111 18.4149 249.197 22.241 249.197 26.9173V51.7412C249.197 52.5459 249.88 53.214 250.704 53.214H255.566C256.389 53.214 257.072 52.5459 257.072 51.7412V41.1436C257.072 40.3237 257.756 39.6709 258.579 39.6709H291.728C292.551 39.6709 293.234 39.0028 293.234 38.1982V33.4459C293.234 32.6412 292.551 31.9732 291.728 31.9732H260.055C258.408 31.9732 257.072 30.6675 257.072 29.0581C257.072 27.4487 258.408 26.143 260.055 26.143H291.728L291.743 26.1126Z" fill="white"/>
<path d="M435.599 18.3999C434.776 18.3999 433.626 18.9009 433.083 19.4931L414.582 39.6103C414.023 40.2176 413.122 40.2176 412.563 39.6103L394.063 19.4931C393.503 18.8858 392.369 18.3999 391.546 18.3999H386.684C385.845 18.3999 385.177 19.0679 385.177 19.8726V51.7262C385.177 52.5309 385.861 53.199 386.684 53.199H391.546C392.369 53.199 393.053 52.5309 393.053 51.7262V31.4116C393.053 30.6069 393.503 30.4247 394.063 31.032L410.435 48.8415C412.159 50.709 414.986 50.709 416.71 48.8415L433.083 31.032C433.642 30.4247 434.092 30.5917 434.092 31.4116V51.7262C434.092 52.5309 434.776 53.199 435.599 53.199H440.461C441.3 53.199 441.968 52.5309 441.968 51.7262V19.8726C441.968 19.0679 441.284 18.3999 440.461 18.3999H435.599Z" fill="white"/>
<path d="M207.893 28.8911C207.893 27.3728 209.167 26.1126 210.736 26.1126H242.564C243.403 26.1126 244.071 25.4446 244.071 24.6399V19.8877C244.071 19.083 243.387 18.4149 242.564 18.4149H208.825C203.979 18.4149 200.018 22.2865 200.018 27.0236V44.6053C200.018 49.3424 203.979 53.214 208.825 53.214H242.564C243.403 53.214 244.071 52.5459 244.071 51.7412V37.2113C244.071 36.3914 243.387 35.7385 242.564 35.7385H237.702C236.879 35.7385 236.195 36.4066 236.195 37.2113V44.0284C236.195 44.8482 235.512 45.5011 234.689 45.5011H210.751C209.198 45.5011 207.909 44.2561 207.909 42.7226V28.8911H207.893Z" fill="white"/>
<path d="M186.985 19.903V39.6862C186.985 40.9768 185.432 41.66 184.438 40.8249L158.574 18.7795C158.295 18.5365 157.937 18.4151 157.565 18.4151H151.786C150.932 18.4151 150.248 19.0831 150.248 19.9182V51.7262C150.248 52.5613 150.932 53.2293 151.786 53.2293H156.601C157.456 53.2293 158.139 52.5613 158.139 51.7262V31.943C158.139 30.6524 159.693 29.9692 160.687 30.8043L186.566 52.8498C186.845 53.0927 187.203 53.2141 187.575 53.2141H193.354C194.208 53.2141 194.892 52.5461 194.892 51.711V19.903C194.892 19.0679 194.208 18.3999 193.354 18.3999H188.538C187.684 18.3999 187.001 19.0679 187.001 19.903" fill="white"/>
<path d="M372.145 29.0279C372.145 30.6373 370.809 31.943 369.162 31.943H355.757C354.918 31.943 354.25 32.611 354.25 33.4157V40.7642C354.25 41.5689 354.763 42.6773 355.384 43.2087L365.962 52.2273C366.584 52.7587 367.78 53.199 368.619 53.199H377.613C378.436 53.199 378.607 52.7587 377.985 52.2273L364.362 40.6276C363.741 40.0962 363.896 39.6559 364.735 39.6559H371.384C376.152 39.6559 380.036 35.845 380.036 31.199V26.8567C380.036 22.1956 376.137 18.3999 371.384 18.3999H337.489C336.651 18.3999 335.983 19.0679 335.983 19.8726V24.6249C335.983 25.4296 336.666 26.0976 337.489 26.0976H369.162C370.809 26.0976 372.145 27.4033 372.145 29.0127" fill="white"/>
<path d="M313.506 18.3999C312.682 18.3999 311.673 18.992 311.284 19.7056L293.809 51.9084C293.421 52.622 293.778 53.2141 294.617 53.2141H300.52C301.343 53.2141 302.352 52.622 302.741 51.9084L315.292 28.7546C316.612 26.3102 318.787 26.3102 320.107 28.7546L332.658 51.9084C333.047 52.622 334.041 53.2141 334.88 53.2141H340.782C341.606 53.2141 341.978 52.622 341.59 51.9084L324.115 19.7056C323.727 18.992 322.732 18.3999 321.894 18.3999H313.474H313.506Z" fill="white"/>
<path d="M465.796 18.3999C464.973 18.3999 463.963 18.992 463.575 19.7056L446.1 51.9084C445.711 52.622 446.069 53.2141 446.908 53.2141H452.81C453.634 53.2141 454.643 52.622 455.032 51.9084L467.583 28.7546C468.903 26.3102 471.078 26.3102 472.398 28.7546L484.949 51.9084C485.338 52.622 486.332 53.2141 487.17 53.2141H493.073C493.896 53.2141 494.269 52.622 493.881 51.9084L476.406 19.7056C476.017 18.992 475.023 18.3999 474.184 18.3999H465.765H465.796Z" fill="white"/>
<path d="M47.6339 12.6H35.7663V24.1997H47.6339V12.6Z" fill="white"/>
<path d="M65.4509 12.6H53.5833V24.1997H65.4509V12.6Z" fill="white"/>
<path d="M83.2524 12.6H71.3848V24.1997H83.2524V12.6Z" fill="white"/>
<path d="M29.8326 29.9995H17.965V41.5992H29.8326V29.9995Z" fill="#25A2CB"/>
<path d="M47.6339 29.9995H35.7663V41.5992H47.6339V29.9995Z" fill="white"/>
<path d="M65.4509 29.9995H53.5833V41.5992H65.4509V29.9995Z" fill="white"/>
<path d="M47.6339 47.4142H35.7663V59.0139H47.6339V47.4142Z" fill="white"/>
<path d="M65.4509 47.4142H53.5833V59.0139H65.4509V47.4142Z" fill="white"/>
<path d="M83.2524 47.4142H71.3848V59.0139H83.2524V47.4142Z" fill="white"/>
</svg>
