<svg width="245" height="78" viewBox="0 0 245 78" fill="none" xmlns="http://www.w3.org/2000/svg">
<g clip-path="url(#clip0_186_13)">
<path d="M244.201 0.877441H19.8574V77.2149H244.201V0.877441Z" fill="#BE1E2D"/>
<path d="M17.308 0.78508H0.783234V77.1226H17.308V0.78508Z" fill="#BBBDBF"/>
<path d="M84.4362 32.9734H88.1527C90.0263 32.9734 91.1014 34.0663 91.1014 35.4979C91.1014 36.36 90.6867 37.0373 90.0263 37.4221V37.4991C90.656 37.7916 91.4085 38.4689 91.4085 39.685C91.4085 41.4553 89.9956 42.4713 88.4445 42.4713H84.4515V32.958L84.4362 32.9734ZM87.8763 36.791C88.5827 36.791 88.9974 36.3446 88.9974 35.7134C88.9974 35.1285 88.552 34.7282 87.8916 34.7282H86.4941V36.791H87.8763ZM87.8763 40.6702C88.6288 40.6702 89.1356 40.2854 89.1356 39.4695C89.1356 38.6536 88.5366 38.3304 87.8455 38.3304H86.4941V40.6702H87.8763Z" fill="white"/>
<path d="M92.2378 38.8999C92.2378 36.7756 93.7889 35.1439 96.1079 35.1439C98.4269 35.1439 99.9627 36.791 99.9627 38.8999C99.9627 41.0089 98.4116 42.656 96.0926 42.656C93.7736 42.656 92.2378 41.0089 92.2378 38.8999ZM97.828 38.8999C97.828 37.807 97.0908 37.0373 96.0926 37.0373C95.0943 37.0373 94.3725 37.807 94.3725 38.8999C94.3725 39.9929 95.1097 40.7626 96.0926 40.7626C97.0755 40.7626 97.828 39.9929 97.828 38.8999Z" fill="white"/>
<path d="M101.145 35.3132H103.126V36.4062H103.234C103.48 35.8828 104.109 35.267 105.077 35.267H105.768V37.2528H104.939C103.91 37.2528 103.249 38.0071 103.249 39.2386V42.5021H101.145V35.3286V35.3132Z" fill="white"/>
<path d="M106.413 38.9307C106.413 36.6832 107.734 35.1285 109.669 35.1285C110.79 35.1285 111.45 35.7442 111.681 36.1137H111.788V32.2806H113.892V42.4713H111.803V41.6554H111.696C111.496 41.9787 110.897 42.6406 109.715 42.6406C107.749 42.6406 106.413 41.1782 106.413 38.9153V38.9307ZM111.834 38.8999C111.834 37.7608 111.143 37.0373 110.176 37.0373C109.208 37.0373 108.532 37.7916 108.532 38.8999C108.532 40.0083 109.193 40.7626 110.191 40.7626C111.189 40.7626 111.834 39.9621 111.834 38.8999Z" fill="white"/>
<path d="M115.182 33.3582C115.182 32.6501 115.704 32.2191 116.411 32.2191C117.117 32.2191 117.639 32.6501 117.639 33.3582C117.639 34.0663 117.117 34.4973 116.411 34.4973C115.704 34.4973 115.182 34.0663 115.182 33.3582ZM115.382 35.3132H117.486V42.4867H115.382V35.3132Z" fill="white"/>
<path d="M118.853 43.1332H120.772C120.864 43.672 121.325 44.0876 122.247 44.0876C123.337 44.0876 123.905 43.5181 123.905 42.4097V41.5785H123.798C123.552 41.9325 122.938 42.5636 121.786 42.5636C119.928 42.5636 118.499 41.1628 118.499 38.8538C118.499 36.5447 119.897 35.1285 121.724 35.1285C122.892 35.1285 123.552 35.7596 123.767 36.1137H123.875V35.2978H125.979V42.3943C125.979 44.2724 124.796 45.7809 122.231 45.7809C120.004 45.7809 118.899 44.5033 118.822 43.1332H118.853ZM123.936 38.8538C123.936 37.7146 123.245 37.0373 122.277 37.0373C121.31 37.0373 120.634 37.7608 120.634 38.8538C120.634 39.9467 121.294 40.6548 122.293 40.6548C123.291 40.6548 123.936 39.9005 123.936 38.8538Z" fill="white"/>
<path d="M127.514 35.3132H129.495V36.0983H129.603C129.895 35.6057 130.57 35.1285 131.523 35.1285C133.104 35.1285 134.087 36.206 134.087 37.6992V42.4867H131.983V38.3612C131.983 37.6223 131.553 37.0989 130.832 37.0989C130.11 37.0989 129.618 37.7146 129.618 38.4689V42.4867H127.514V35.3132Z" fill="white"/>
<path d="M135.147 38.8999C135.147 36.7756 136.698 35.1439 139.017 35.1439C141.336 35.1439 142.872 36.791 142.872 38.8999C142.872 41.0089 141.321 42.656 139.002 42.656C136.683 42.656 135.147 41.0089 135.147 38.8999ZM140.722 38.8999C140.722 37.807 139.985 37.0373 138.986 37.0373C137.988 37.0373 137.266 37.807 137.266 38.8999C137.266 39.9929 138.004 40.7626 138.986 40.7626C139.969 40.7626 140.722 39.9929 140.722 38.8999Z" fill="white"/>
<path d="M144.054 35.3132H146.036V36.0983H146.143C146.435 35.6057 147.111 35.1285 148.063 35.1285C149.645 35.1285 150.627 36.206 150.627 37.6992V42.4867H148.523V38.3612C148.523 37.6223 148.093 37.0989 147.372 37.0989C146.65 37.0989 146.158 37.7146 146.158 38.4689V42.4867H144.054V35.3132Z" fill="white"/>
<path d="M155.004 38.9307C155.004 36.6832 156.494 35.1285 158.675 35.1285C161.04 35.1285 162.269 36.868 162.269 38.8692V39.4849H157.001C157.062 40.3931 157.738 41.0397 158.721 41.0397C159.55 41.0397 160.103 40.6394 160.303 40.1776H162.207C161.885 41.6862 160.579 42.656 158.644 42.656C156.571 42.656 155.004 41.1012 155.004 38.9307ZM160.318 38.0841C160.241 37.3298 159.612 36.7448 158.675 36.7448C157.738 36.7448 157.124 37.376 157.032 38.0841H160.318Z" fill="white"/>
<path d="M166.922 32.9734H170.638C172.512 32.9734 173.587 34.0663 173.587 35.4979C173.587 36.36 173.172 37.0373 172.512 37.4221V37.4991C173.142 37.7916 173.894 38.4689 173.894 39.685C173.894 41.4553 172.481 42.4713 170.93 42.4713H166.937V32.958L166.922 32.9734ZM170.347 36.791C171.053 36.791 171.468 36.3446 171.468 35.7134C171.468 35.1285 171.022 34.7282 170.362 34.7282H168.964V36.791H170.347ZM170.347 40.6702C171.099 40.6702 171.606 40.2854 171.606 39.4695C171.606 38.6536 171.007 38.3304 170.316 38.3304H168.964V40.6702H170.347Z" fill="white"/>
<path d="M174.708 38.8999C174.708 36.7756 176.259 35.1439 178.578 35.1439C180.897 35.1439 182.433 36.791 182.433 38.8999C182.433 41.0089 180.882 42.656 178.563 42.656C176.244 42.656 174.708 41.0089 174.708 38.8999ZM180.298 38.8999C180.298 37.807 179.561 37.0373 178.563 37.0373C177.565 37.0373 176.843 37.807 176.843 38.8999C176.843 39.9929 177.58 40.7626 178.563 40.7626C179.546 40.7626 180.298 39.9929 180.298 38.8999Z" fill="white"/>
<path d="M183.616 35.3132H185.597V36.4062H185.704C185.95 35.8828 186.58 35.267 187.547 35.267H188.238V37.2528H187.409C186.38 37.2528 185.72 38.0071 185.72 39.2386V42.5021H183.616V35.3286V35.3132Z" fill="white"/>
<path d="M188.883 38.9307C188.883 36.6832 190.204 35.1285 192.139 35.1285C193.26 35.1285 193.921 35.7442 194.151 36.1137H194.258V32.2806H196.362V42.4713H194.274V41.6554H194.166C193.967 41.9787 193.368 42.6406 192.185 42.6406C190.219 42.6406 188.883 41.1782 188.883 38.9153V38.9307ZM194.305 38.8999C194.305 37.7608 193.613 37.0373 192.646 37.0373C191.678 37.0373 191.003 37.7916 191.003 38.8999C191.003 40.0083 191.663 40.7626 192.661 40.7626C193.66 40.7626 194.305 39.9621 194.305 38.8999Z" fill="white"/>
<path d="M197.668 33.3582C197.668 32.6501 198.19 32.2191 198.896 32.2191C199.603 32.2191 200.125 32.6501 200.125 33.3582C200.125 34.0663 199.603 34.4973 198.896 34.4973C198.19 34.4973 197.668 34.0663 197.668 33.3582ZM197.852 35.3132H199.956V42.4867H197.852V35.3132Z" fill="white"/>
<path d="M201.338 43.1332H203.258C203.35 43.672 203.811 44.0876 204.732 44.0876C205.823 44.0876 206.391 43.5181 206.391 42.4097V41.5785H206.283C206.038 41.9325 205.423 42.5636 204.272 42.5636C202.413 42.5636 200.985 41.1628 200.985 38.8538C200.985 36.5447 202.383 35.1285 204.21 35.1285C205.377 35.1285 206.038 35.7596 206.253 36.1137H206.36V35.2978H208.464V42.3943C208.464 44.2724 207.282 45.7809 204.717 45.7809C202.49 45.7809 201.384 44.5033 201.308 43.1332H201.338ZM206.422 38.8538C206.422 37.7146 205.731 37.0373 204.763 37.0373C203.796 37.0373 203.12 37.7608 203.12 38.8538C203.12 39.9467 203.78 40.6548 204.778 40.6548C205.777 40.6548 206.422 39.9005 206.422 38.8538Z" fill="white"/>
<path d="M210 35.3132H211.981V36.0983H212.089C212.38 35.6057 213.056 35.1285 214.008 35.1285C215.59 35.1285 216.573 36.206 216.573 37.6992V42.4867H214.469V38.3612C214.469 37.6223 214.039 37.0989 213.317 37.0989C212.595 37.0989 212.104 37.7146 212.104 38.4689V42.4867H210V35.3132Z" fill="white"/>
<path d="M217.617 38.8999C217.617 36.7756 219.168 35.1439 221.487 35.1439C223.806 35.1439 225.342 36.791 225.342 38.8999C225.342 41.0089 223.791 42.656 221.472 42.656C219.153 42.656 217.617 41.0089 217.617 38.8999ZM223.208 38.8999C223.208 37.807 222.47 37.0373 221.472 37.0373C220.474 37.0373 219.752 37.807 219.752 38.8999C219.752 39.9929 220.489 40.7626 221.472 40.7626C222.455 40.7626 223.208 39.9929 223.208 38.8999Z" fill="white"/>
<path d="M226.525 35.3132H228.506V36.0983H228.613C228.905 35.6057 229.581 35.1285 230.533 35.1285C232.115 35.1285 233.098 36.206 233.098 37.6992V42.4867H230.994V38.3612C230.994 37.6223 230.564 37.0989 229.842 37.0989C229.12 37.0989 228.629 37.7146 228.629 38.4689V42.4867H226.525V35.3132Z" fill="white"/>
<path d="M16.2177 0.78508H42.7249C57.4528 0.78508 65.961 9.3132 65.961 20.566C65.961 27.8934 62.4748 33.5737 56.685 36.7448V37.4067C61.7069 39.3771 68.5718 44.8419 68.5718 55.3404C68.5718 69.2256 57.6679 77.3073 44.9057 77.3073H16.2177V0.78508ZM41.742 33.0349C49.2672 33.0349 54.2892 28.4476 54.2892 21.6744C54.2892 14.9011 49.1597 10.8526 41.957 10.8526H27.6744V33.0503H41.742V33.0349ZM42.4024 67.2552C50.373 67.2552 56.3625 63.3144 56.3625 54.5708C56.3625 45.8271 49.3747 42.225 41.6345 42.225H27.6744V67.2552H42.4024Z" fill="white"/>
<path d="M135.638 54.2167H136.76L138.434 58.9118H137.497L137.174 57.9882H135.224L134.901 58.9118H133.98L135.638 54.2167ZM136.898 57.1877L136.207 55.2173H136.161L135.469 57.1877H136.898Z" fill="#BBBDBF"/>
<path d="M139.877 54.2167H141.459C142.949 54.2167 143.839 55.1865 143.839 56.5566C143.839 58.0036 142.949 58.9118 141.459 58.9118H139.877V54.2167ZM141.428 58.1421C142.242 58.1421 142.918 57.6649 142.918 56.5566C142.918 55.4482 142.242 55.0018 141.428 55.0018H140.768V58.1421H141.428Z" fill="#BBBDBF"/>
<path d="M144.884 54.2167H145.867L147.064 57.7419H147.111L148.324 54.2167H149.307L147.556 58.9118H146.619L144.884 54.2167Z" fill="#BBBDBF"/>
<path d="M150.336 56.572C150.336 55.1865 151.38 54.1397 152.808 54.1397C154.236 54.1397 155.281 55.2019 155.281 56.572C155.281 57.942 154.221 59.0042 152.808 59.0042C151.395 59.0042 150.351 57.9728 150.351 56.572H150.336ZM154.344 56.572C154.344 55.6791 153.699 54.9864 152.808 54.9864C151.917 54.9864 151.257 55.6637 151.257 56.572C151.257 57.4802 151.902 58.1575 152.808 58.1575C153.714 58.1575 154.344 57.4802 154.344 56.572Z" fill="#BBBDBF"/>
<path d="M156.694 56.572C156.694 55.1865 157.707 54.1397 159.136 54.1397C160.318 54.1397 161.163 54.8479 161.408 55.8023H160.426C160.241 55.3405 159.765 55.0018 159.12 55.0018C158.199 55.0018 157.6 55.6791 157.6 56.5873C157.6 57.4956 158.214 58.1883 159.136 58.1883C159.903 58.1883 160.472 57.7419 160.533 57.1415H159.043V56.4026H161.516C161.562 58.0651 160.533 59.0196 159.136 59.0196C157.738 59.0196 156.678 57.9882 156.678 56.5873L156.694 56.572Z" fill="#BBBDBF"/>
<path d="M164.265 54.2167H165.386L167.06 58.9118H166.123L165.801 57.9882H163.85L163.528 58.9118H162.606L164.265 54.2167ZM165.524 57.1877L164.833 55.2173H164.787L164.096 57.1877H165.524Z" fill="#BBBDBF"/>
<path d="M168.504 54.2167H170.086C171.575 54.2167 172.466 55.1865 172.466 56.5566C172.466 58.0036 171.575 58.9118 170.086 58.9118H168.504V54.2167ZM170.039 58.1421C170.853 58.1421 171.529 57.6649 171.529 56.5566C171.529 55.4482 170.853 55.0018 170.039 55.0018H169.379V58.1421H170.039Z" fill="#BBBDBF"/>
<path d="M173.894 56.572C173.894 55.1865 174.939 54.1397 176.367 54.1397C177.795 54.1397 178.839 55.2019 178.839 56.572C178.839 57.942 177.78 59.0042 176.367 59.0042C174.954 59.0042 173.91 57.9728 173.91 56.572H173.894ZM177.903 56.572C177.903 55.6791 177.258 54.9864 176.367 54.9864C175.476 54.9864 174.816 55.6637 174.816 56.572C174.816 57.4802 175.461 58.1575 176.367 58.1575C177.273 58.1575 177.903 57.4802 177.903 56.572Z" fill="#BBBDBF"/>
<path d="M180.206 57.434H181.066C181.066 57.8496 181.419 58.1883 182.003 58.1883C182.51 58.1883 182.832 57.9728 182.832 57.6187C182.832 56.5412 180.344 57.4032 180.344 55.4944C180.344 54.7555 180.928 54.1397 181.957 54.1397C182.848 54.1397 183.6 54.6016 183.631 55.5868H182.74C182.74 55.2019 182.464 54.9402 181.957 54.9402C181.45 54.9402 181.22 55.1865 181.22 55.479C181.22 56.4642 183.738 55.6483 183.738 57.5571C183.738 58.3884 183.093 59.0042 181.972 59.0042C180.851 59.0042 180.191 58.373 180.191 57.434H180.206Z" fill="#BBBDBF"/>
<path d="M187.547 56.572C187.547 55.1865 188.576 54.1397 189.974 54.1397C191.371 54.1397 192.4 55.2019 192.4 56.572C192.4 57.942 191.371 59.0042 189.974 59.0042C188.576 59.0042 187.563 57.9728 187.563 56.572H187.547ZM191.832 56.572C191.832 55.479 191.049 54.6477 189.974 54.6477C188.899 54.6477 188.115 55.479 188.115 56.572C188.115 57.6649 188.899 58.4962 189.974 58.4962C191.049 58.4962 191.832 57.6803 191.832 56.572Z" fill="#BBBDBF"/>
<path d="M195.349 54.2167H195.978L197.775 58.9118H197.207L196.792 57.8034H194.535L194.12 58.9118H193.552L195.364 54.2167H195.349ZM196.593 57.3108L195.671 54.8632H195.625L194.704 57.3108H196.593Z" fill="#BBBDBF"/>
<path d="M199.373 54.2167H200.878C201.768 54.2167 202.29 54.7401 202.29 55.4174C202.29 55.8792 202.075 56.2333 201.692 56.4334V56.4796C201.999 56.5873 202.444 56.926 202.444 57.5879C202.444 58.4346 201.784 58.9272 201 58.9272H199.357V54.2321L199.373 54.2167ZM200.862 56.2487C201.384 56.2487 201.738 55.9408 201.738 55.4636C201.738 54.9864 201.384 54.7093 200.878 54.7093H199.895V56.2641H200.847L200.862 56.2487ZM200.924 58.4346C201.477 58.4346 201.891 58.1729 201.891 57.5571C201.891 56.9414 201.4 56.6951 200.862 56.6951H199.91V58.4192H200.924V58.4346Z" fill="#BBBDBF"/>
<path d="M205.761 53.8934H206.253L204.226 59.6353H203.734L205.761 53.8934Z" fill="#BBBDBF"/>
<path d="M207.927 54.2167H209.601C210.445 54.2167 211.029 54.7709 211.029 55.6175C211.029 56.4642 210.415 57.0492 209.601 57.0492H208.464V58.9118H207.927V54.2167ZM209.555 56.5719C210.123 56.5719 210.476 56.1717 210.476 55.6329C210.476 55.0941 210.107 54.7093 209.555 54.7093H208.464V56.5719H209.555Z" fill="#BBBDBF"/>
<path d="M212.703 54.2167H214.285C215.237 54.2167 215.805 54.7863 215.805 55.6021C215.805 56.2949 215.36 56.8028 214.838 56.9568L215.928 58.9118H215.298L214.269 57.0184H213.24V58.9118H212.703V54.2167ZM214.285 56.5412C214.838 56.5412 215.252 56.2333 215.252 55.6175C215.252 55.1249 214.914 54.7093 214.254 54.7093H213.24V56.5412H214.285Z" fill="#BBBDBF"/>
<path d="M221.979 57.1569L221.948 57.1261C221.841 57.1723 221.672 57.2031 221.518 57.2031C220.627 57.2031 219.967 56.5412 219.967 55.6637C219.967 54.7863 220.658 54.1089 221.534 54.1089C222.409 54.1089 223.085 54.7709 223.085 55.6637C223.085 55.987 222.977 56.2795 222.839 56.5412L221.518 58.8964H220.904L221.948 57.1415L221.979 57.1569ZM222.563 55.6791C222.563 55.0941 222.163 54.6323 221.549 54.6323C220.935 54.6323 220.535 55.0941 220.535 55.6791C220.535 56.2641 220.935 56.7259 221.549 56.7259C222.163 56.7259 222.563 56.2487 222.563 55.6791Z" fill="#BBBDBF"/>
<path d="M224.774 57.6033C224.774 56.9106 225.265 56.5566 225.557 56.4334V56.3872C225.311 56.2641 224.974 55.9254 224.974 55.3866C224.974 54.6323 225.588 54.1397 226.34 54.1397C227.093 54.1397 227.707 54.6477 227.707 55.3866C227.707 55.91 227.369 56.2641 227.124 56.3872V56.4334C227.415 56.5566 227.907 56.9106 227.907 57.6033C227.907 58.45 227.262 59.0042 226.34 59.0042C225.419 59.0042 224.774 58.45 224.774 57.6033ZM227.354 57.6033C227.354 57.0184 226.893 56.6797 226.34 56.6797C225.788 56.6797 225.327 57.003 225.327 57.6033C225.327 58.0959 225.68 58.5116 226.34 58.5116C227.001 58.5116 227.354 58.0959 227.354 57.6033ZM227.154 55.402C227.154 54.9864 226.847 54.6323 226.34 54.6323C225.834 54.6323 225.527 54.9864 225.527 55.402C225.527 55.8177 225.849 56.1871 226.34 56.1871C226.832 56.1871 227.154 55.8331 227.154 55.402Z" fill="#BBBDBF"/>
<path d="M229.688 58.3268C229.688 57.6957 230.026 57.3108 230.625 56.926L231.47 56.3872C231.777 56.1871 231.992 55.91 231.992 55.4944C231.992 55.0018 231.67 54.6323 231.086 54.6323C230.564 54.6323 230.18 55.0172 230.18 55.4944H229.673C229.673 54.8478 230.165 54.1243 231.101 54.1243C232.038 54.1243 232.545 54.7863 232.545 55.479C232.545 56.0178 232.284 56.4488 231.746 56.7875L230.932 57.3108C230.38 57.6649 230.226 57.9266 230.226 58.296V58.4038H232.591V58.8964H229.688V58.3114V58.3268Z" fill="#BBBDBF"/>
<path d="M235.448 55.325H234.311V54.894C235.171 54.894 235.478 54.6939 235.478 54.2167H235.985V58.9118H235.448V55.325Z" fill="#BBBDBF"/>
</g>
<defs>
<clipPath id="clip0_186_13">
<rect width="245" height="78" fill="white"/>
</clipPath>
</defs>
</svg>
