<svg width="285" height="80" viewBox="0 0 285 80" fill="none" xmlns="http://www.w3.org/2000/svg">
<path d="M80.7809 33.6382V31.0993C80.7809 30.6185 80.3831 30.2305 79.8903 30.2305H61.1099C58.4294 30.2305 56.2592 32.3476 56.2592 34.9625V44.8313C56.2592 47.4461 58.4294 49.5633 61.1099 49.5633H79.8903C80.3831 49.5633 80.7809 49.1753 80.7809 48.6945V46.1556C80.7809 45.6748 80.3831 45.2868 79.8903 45.2868H62.3118C61.3952 45.2868 60.6516 44.5614 60.6516 43.6673C60.6516 42.7732 61.3952 42.0478 62.3118 42.0478H79.8903C80.3831 42.0478 80.7809 41.6598 80.7809 41.179V38.6401C80.7809 38.1593 80.3831 37.7713 79.8903 37.7713H62.3118C61.3952 37.7713 60.6516 37.0459 60.6516 36.1518C60.6516 35.2577 61.3952 34.5323 62.3118 34.5323H79.8903C80.3831 34.5323 80.7809 34.1443 80.7809 33.6635" fill="white"/>
<path d="M162.396 34.507C162.854 34.507 163.235 34.1358 163.235 33.6888V31.0487C163.235 30.5932 162.854 30.2305 162.396 30.2305H143.555C140.892 30.2305 138.713 32.3561 138.713 34.954V48.7451C138.713 49.1921 139.093 49.5633 139.552 49.5633H142.258C142.716 49.5633 143.097 49.1921 143.097 48.7451V42.8575C143.097 42.402 143.477 42.0393 143.936 42.0393H162.387C162.846 42.0393 163.226 41.6682 163.226 41.2212V38.581C163.226 38.134 162.846 37.7628 162.387 37.7628H144.757C143.84 37.7628 143.097 37.0374 143.097 36.1433C143.097 35.2492 143.84 34.5238 144.757 34.5238H162.387L162.396 34.507Z" fill="white"/>
<path d="M242.472 30.2222C242.014 30.2222 241.374 30.5005 241.071 30.8295L230.773 42.0057C230.462 42.3431 229.96 42.3431 229.649 42.0057L219.351 30.8295C219.04 30.4921 218.409 30.2222 217.95 30.2222H215.244C214.777 30.2222 214.405 30.5933 214.405 31.0404V48.7368C214.405 49.1838 214.786 49.555 215.244 49.555H217.95C218.409 49.555 218.789 49.1838 218.789 48.7368V37.4509C218.789 37.0038 219.04 36.9026 219.351 37.24L228.465 47.1342C229.424 48.1717 230.998 48.1717 231.958 47.1342L241.071 37.24C241.383 36.9026 241.633 36.9954 241.633 37.4509V48.7368C241.633 49.1838 242.014 49.555 242.472 49.555H245.178C245.645 49.555 246.017 49.1838 246.017 48.7368V31.0404C246.017 30.5933 245.637 30.2222 245.178 30.2222H242.472Z" fill="white"/>
<path d="M115.722 36.0506C115.722 35.2071 116.431 34.507 117.304 34.507H135.021C135.488 34.507 135.86 34.1358 135.86 33.6888V31.0487C135.86 30.6016 135.479 30.2305 135.021 30.2305H116.241C113.543 30.2305 111.338 32.3814 111.338 35.0131V44.7807C111.338 47.4124 113.543 49.5633 116.241 49.5633H135.021C135.488 49.5633 135.86 49.1921 135.86 48.7451V40.6729C135.86 40.2174 135.479 39.8547 135.021 39.8547H132.315C131.856 39.8547 131.476 40.2258 131.476 40.6729V44.4602C131.476 44.9156 131.095 45.2783 130.637 45.2783H117.313C116.448 45.2783 115.73 44.5867 115.73 43.7348V36.0506H115.722Z" fill="white"/>
<path d="M104.083 31.0572V42.0479C104.083 42.7649 103.219 43.1444 102.665 42.6805L88.2688 30.433C88.1132 30.2981 87.9143 30.2306 87.7068 30.2306H84.4903C84.0147 30.2306 83.6343 30.6017 83.6343 31.0657V48.7368C83.6343 49.2007 84.0147 49.5718 84.4903 49.5718H87.1707C87.6463 49.5718 88.0267 49.2007 88.0267 48.7368V37.7461C88.0267 37.0291 88.8914 36.6496 89.4448 37.1135L103.85 49.361C104.006 49.4959 104.205 49.5634 104.412 49.5634H107.629C108.104 49.5634 108.485 49.1923 108.485 48.7284V31.0572C108.485 30.5933 108.104 30.2222 107.629 30.2222H104.948C104.473 30.2222 104.092 30.5933 104.092 31.0572" fill="white"/>
<path d="M207.151 36.1266C207.151 37.0207 206.407 37.7461 205.491 37.7461H198.029C197.562 37.7461 197.19 38.1172 197.19 38.5643V42.6468C197.19 43.0938 197.475 43.7096 197.821 44.0048L203.709 49.0151C204.055 49.3104 204.721 49.555 205.188 49.555H210.194C210.653 49.555 210.748 49.3104 210.402 49.0151L202.819 42.5709C202.473 42.2757 202.559 42.031 203.026 42.031H206.727C209.382 42.031 211.543 39.9139 211.543 37.3328V34.9204C211.543 32.3309 209.373 30.2222 206.727 30.2222H187.86C187.393 30.2222 187.021 30.5933 187.021 31.0404V33.6805C187.021 34.1275 187.402 34.4987 187.86 34.4987H205.491C206.407 34.4987 207.151 35.2241 207.151 36.1182" fill="white"/>
<path d="M174.51 30.2222C174.052 30.2222 173.49 30.5511 173.273 30.9476L163.546 48.838C163.33 49.2345 163.529 49.5634 163.996 49.5634H167.281C167.74 49.5634 168.302 49.2345 168.518 48.838L175.504 35.9748C176.239 34.6168 177.45 34.6168 178.185 35.9748L185.171 48.838C185.387 49.2345 185.941 49.5634 186.408 49.5634H189.693C190.152 49.5634 190.359 49.2345 190.143 48.838L180.415 30.9476C180.199 30.5511 179.646 30.2222 179.179 30.2222H174.493H174.51Z" fill="white"/>
<path d="M259.281 30.2222C258.823 30.2222 258.261 30.5511 258.045 30.9476L248.317 48.838C248.101 49.2345 248.3 49.5634 248.767 49.5634H252.053C252.511 49.5634 253.073 49.2345 253.289 48.838L260.275 35.9748C261.01 34.6168 262.221 34.6168 262.956 35.9748L269.942 48.838C270.158 49.2345 270.712 49.5634 271.179 49.5634H274.464C274.923 49.5634 275.13 49.2345 274.914 48.838L265.187 30.9476C264.971 30.5511 264.417 30.2222 263.95 30.2222H259.264H259.281Z" fill="white"/>
<path d="M26.5149 27H19.9089V33.4443H26.5149V27Z" fill="white"/>
<path d="M36.4326 27H29.8266V33.4443H36.4326V27Z" fill="white"/>
<path d="M46.3416 27H39.7356V33.4443H46.3416V27Z" fill="white"/>
<path d="M16.606 36.6664H10V43.1107H16.606V36.6664Z" fill="#25A2CB"/>
<path d="M26.5149 36.6664H19.9089V43.1107H26.5149V36.6664Z" fill="white"/>
<path d="M36.4326 36.6664H29.8266V43.1107H36.4326V36.6664Z" fill="white"/>
<path d="M26.5149 46.3413H19.9089V52.7856H26.5149V46.3413Z" fill="white"/>
<path d="M36.4326 46.3413H29.8266V52.7856H36.4326V46.3413Z" fill="white"/>
<path d="M46.3416 46.3413H39.7356V52.7856H46.3416V46.3413Z" fill="white"/>
</svg>
